<?xml version="1.0" encoding="utf-8"?>
<!-- Generator: Adobe Illustrator 23.0.1, SVG Export Plug-In . SVG Version: 6.00 Build 0)  -->
<svg version="1.1" id="Layer_1" xmlns="http://www.w3.org/2000/svg" xmlns:xlink="http://www.w3.org/1999/xlink" x="0px" y="0px"
	 viewBox="0 0 24 24" style="enable-background:new 0 0 24 24;" xml:space="preserve">
<style type="text/css">
	.st0{fill:#FFFFFF;}
</style>
<path class="st0" d="M5,7c2.8,0,5,2.2,5,5s-2.2,5-5,5s-5-2.2-5-5S2.2,7,5,7z M16.1,19.1C16,19.4,16,19.7,16,20c0,2.2,1.8,4,4,4
	s4-1.8,4-4s-1.8-4-4-4c-1.2,0-2.2,0.5-2.9,1.3l-5.5-2.9c-0.2,0.6-0.5,1.2-0.9,1.8C10.6,16.1,16.1,19.1,16.1,19.1z M24,4
	c0-2.2-1.8-4-4-4s-4,1.8-4,4c0,0.3,0,0.6,0.1,0.9l-5.5,2.9C11,8.4,11.3,9,11.6,9.6l5.5-2.9C17.8,7.5,18.8,8,20,8C22.2,8,24,6.2,24,4
	z"/>
</svg>
